<svg width="24" height="14" viewBox="0 0 24 14" fill="none" xmlns="http://www.w3.org/2000/svg">
<rect width="24" height="14" fill="transparent"/>
<path d="M4.30979 2.58541C4.36966 2.40115 4.63034 2.40115 4.69021 2.58541L5.01638 3.58926C5.04316 3.67167 5.11995 3.72746 5.20659 3.72746H6.2621C6.45585 3.72746 6.5364 3.97538 6.37966 4.08926L5.52574 4.70967C5.45564 4.7606 5.42631 4.85088 5.45308 4.93328L5.77925 5.93713C5.83912 6.12139 5.62823 6.27462 5.47148 6.16074L4.61756 5.54033C4.54746 5.4894 4.45254 5.4894 4.38244 5.54033L3.52852 6.16074C3.37177 6.27462 3.16088 6.12139 3.22075 5.93713L3.54692 4.93328C3.57369 4.85088 3.54436 4.7606 3.47426 4.70967L2.62034 4.08926C2.4636 3.97538 2.54415 3.72746 2.7379 3.72746H3.79341C3.88005 3.72746 3.95684 3.67167 3.98362 3.58926L4.30979 2.58541Z" fill="#EF4444"/>
<path d="M9.30979 2.58541C9.36966 2.40115 9.63034 2.40115 9.69021 2.58541L10.0164 3.58926C10.0432 3.67167 10.1199 3.72746 10.2066 3.72746H11.2621C11.4558 3.72746 11.5364 3.97538 11.3797 4.08926L10.5257 4.70967C10.4556 4.7606 10.4263 4.85088 10.4531 4.93328L10.7793 5.93713C10.8391 6.12139 10.6282 6.27462 10.4715 6.16074L9.61756 5.54033C9.54746 5.4894 9.45254 5.4894 9.38244 5.54033L8.52852 6.16074C8.37177 6.27462 8.16088 6.12139 8.22075 5.93713L8.54692 4.93328C8.57369 4.85088 8.54436 4.7606 8.47426 4.70967L7.62034 4.08926C7.4636 3.97538 7.54415 3.72746 7.7379 3.72746H8.79341C8.88005 3.72746 8.95684 3.67167 8.98362 3.58926L9.30979 2.58541Z" fill="#EF4444"/>
<path d="M14.3098 2.58541C14.3697 2.40115 14.6303 2.40115 14.6902 2.58541L15.0164 3.58926C15.0432 3.67167 15.1199 3.72746 15.2066 3.72746H16.2621C16.4558 3.72746 16.5364 3.97538 16.3797 4.08926L15.5257 4.70967C15.4556 4.7606 15.4263 4.85088 15.4531 4.93328L15.7793 5.93713C15.8391 6.12139 15.6282 6.27462 15.4715 6.16074L14.6176 5.54033C14.5475 5.4894 14.4525 5.4894 14.3824 5.54033L13.5285 6.16074C13.3718 6.27462 13.1609 6.12139 13.2207 5.93713L13.5469 4.93328C13.5737 4.85088 13.5444 4.7606 13.4743 4.70967L12.6203 4.08926C12.4636 3.97538 12.5442 3.72746 12.7379 3.72746H13.7934C13.8801 3.72746 13.9568 3.67167 13.9836 3.58926L14.3098 2.58541Z" fill="#EF4444"/>
<path d="M19.3098 2.58541C19.3697 2.40115 19.6303 2.40115 19.6902 2.58541L20.0164 3.58926C20.0432 3.67167 20.1199 3.72746 20.2066 3.72746H21.2621C21.4558 3.72746 21.5364 3.97538 21.3797 4.08926L20.5257 4.70967C20.4556 4.7606 20.4263 4.85088 20.4531 4.93328L20.7793 5.93713C20.8391 6.12139 20.6282 6.27462 20.4715 6.16074L19.6176 5.54033C19.5475 5.4894 19.4525 5.4894 19.3824 5.54033L18.5285 6.16074C18.3718 6.27462 18.1609 6.12139 18.2207 5.93713L18.5469 4.93328C18.5737 4.85088 18.5444 4.7606 18.4743 4.70967L17.6203 4.08926C17.4636 3.97538 17.5442 3.72746 17.7379 3.72746H18.7934C18.8801 3.72746 18.9568 3.67167 18.9836 3.58926L19.3098 2.58541Z" fill="#EF4444"/>
<path d="M6.80979 7.58541C6.86966 7.40115 7.13034 7.40115 7.19021 7.58541L7.51638 8.58926C7.54316 8.67167 7.61995 8.72746 7.70659 8.72746H8.7621C8.95585 8.72746 9.0364 8.97538 8.87966 9.08926L8.02574 9.70967C7.95564 9.7606 7.92631 9.85088 7.95308 9.93328L8.27925 10.9371C8.33912 11.1214 8.12823 11.2746 7.97148 11.1607L7.11756 10.5403C7.04746 10.4894 6.95254 10.4894 6.88244 10.5403L6.02852 11.1607C5.87177 11.2746 5.66088 11.1214 5.72075 10.9371L6.04692 9.93328C6.07369 9.85088 6.04436 9.7606 5.97426 9.70967L5.12034 9.08926C4.9636 8.97538 5.04415 8.72746 5.2379 8.72746H6.29341C6.38005 8.72746 6.45684 8.67167 6.48362 8.58926L6.80979 7.58541Z" fill="#EF4444"/>
<path d="M11.8098 7.58541C11.8697 7.40115 12.1303 7.40115 12.1902 7.58541L12.5164 8.58926C12.5432 8.67167 12.6199 8.72746 12.7066 8.72746H13.7621C13.9558 8.72746 14.0364 8.97538 13.8797 9.08926L13.0257 9.70967C12.9556 9.7606 12.9263 9.85088 12.9531 9.93328L13.2793 10.9371C13.3391 11.1214 13.1282 11.2746 12.9715 11.1607L12.1176 10.5403C12.0475 10.4894 11.9525 10.4894 11.8824 10.5403L11.0285 11.1607C10.8718 11.2746 10.6609 11.1214 10.7207 10.9371L11.0469 9.93328C11.0737 9.85088 11.0444 9.7606 10.9743 9.70967L10.1203 9.08926C9.9636 8.97538 10.0442 8.72746 10.2379 8.72746H11.2934C11.3801 8.72746 11.4568 8.67167 11.4836 8.58926L11.8098 7.58541Z" fill="#EF4444"/>
<path d="M16.8098 7.58541C16.8697 7.40115 17.1303 7.40115 17.1902 7.58541L17.5164 8.58926C17.5432 8.67167 17.6199 8.72746 17.7066 8.72746H18.7621C18.9558 8.72746 19.0364 8.97538 18.8797 9.08926L18.0257 9.70967C17.9556 9.7606 17.9263 9.85088 17.9531 9.93328L18.2793 10.9371C18.3391 11.1214 18.1282 11.2746 17.9715 11.1607L17.1176 10.5403C17.0475 10.4894 16.9525 10.4894 16.8824 10.5403L16.0285 11.1607C15.8718 11.2746 15.6609 11.1214 15.7207 10.9371L16.0469 9.93328C16.0737 9.85088 16.0444 9.7606 15.9743 9.70967L15.1203 9.08926C14.9636 8.97538 15.0442 8.72746 15.2379 8.72746H16.2934C16.3801 8.72746 16.4568 8.67167 16.4836 8.58926L16.8098 7.58541Z" fill="#EF4444"/>
</svg>
