<svg xmlns="http://www.w3.org/2000/svg" height="24" viewBox="0 -960 960 960" width="24"><path d="M747.691-600v-71.538q0-15.461 10.346-25.807 10.347-10.346 25.808-10.346h76.154v-36.923H747.691v-35.385h111.538q15.462 0 25.808 10.347 10.346 10.346 10.346 25.807v35.384q0 15.462-10.346 25.808t-25.808 10.346h-76.153v36.923h112.307V-600H747.691ZM257.694-180.001l176.153-274.845-162.768-252.845h78.69l128.616 203.846h2.461L610-707.691h79.306L524.768-454.846l177.538 274.845H623l-142.154-222.77h-2.461L337-180.001h-79.306Z"/></svg>